<svg width="28" height="35" viewBox="0 0 28 35" fill="none" xmlns="http://www.w3.org/2000/svg">
<path d="M20.0338 3.46259L20.4598 3.88759C20.5532 3.98562 20.6652 4.06398 20.7893 4.11807C20.9134 4.17215 21.0471 4.20086 21.1825 4.20251C21.3178 4.20416 21.4522 4.17872 21.5775 4.12768C21.7029 4.07664 21.8168 4.00103 21.9126 3.9053C22.0083 3.80958 22.0839 3.69567 22.1349 3.57029C22.186 3.44491 22.2114 3.31058 22.2098 3.17521C22.2081 3.03985 22.1794 2.90618 22.1253 2.78208C22.0712 2.65798 21.9929 2.54595 21.8948 2.45259L19.7368 0.29959C19.5464 0.109615 19.2884 0.00292969 19.0193 0.00292969C18.7503 0.00292969 18.4923 0.109615 18.3018 0.29959L16.1448 2.45659C15.9545 2.64688 15.8477 2.90498 15.8477 3.17409C15.8477 3.4432 15.9545 3.7013 16.1448 3.89159C16.3351 4.08188 16.5932 4.18879 16.8623 4.18879C17.1314 4.18879 17.3895 4.08188 17.5798 3.89159L18.0058 3.46659V6.95659C18.7216 7.29816 19.4013 7.71056 20.0349 8.18759V3.46259H20.0338Z" fill="#FB7F16"/>
<path d="M12.9318 19.3617C13.7873 19.3617 14.4808 18.6682 14.4808 17.8127C14.4808 16.9572 13.7873 16.2637 12.9318 16.2637C12.0763 16.2637 11.3828 16.9572 11.3828 17.8127C11.3828 18.6682 12.0763 19.3617 12.9318 19.3617Z" fill="#FB7F16"/>
<path d="M27.4841 23.9128L24.6841 19.1128C24.9344 17.044 24.6363 14.9457 23.8198 13.0284C23.0033 11.111 21.6971 9.44207 20.0321 8.18884V17.8138C20.0316 19.3221 19.5509 20.791 18.6596 22.0076C17.7683 23.2243 16.5127 24.1256 15.0748 24.5807C13.6369 25.0359 12.0914 25.0214 10.6624 24.5392C9.23327 24.0571 7.99486 23.1324 7.1266 21.8991C6.25834 20.6659 5.80535 19.1882 5.83329 17.6803C5.86122 16.1723 6.36864 14.7124 7.28198 13.5122C8.19532 12.312 9.46714 11.4338 10.9131 11.0049C12.3591 10.576 13.904 10.6187 15.3241 11.1268C15.4532 11.1689 15.5726 11.2364 15.6751 11.3255C15.7777 11.4145 15.8613 11.5232 15.9211 11.6452C15.9809 11.7671 16.0156 11.8998 16.0231 12.0354C16.0307 12.171 16.011 12.3067 15.9651 12.4346C15.9193 12.5624 15.8482 12.6798 15.7562 12.7796C15.6642 12.8795 15.5531 12.9599 15.4294 13.0161C15.3058 13.0722 15.1721 13.103 15.0364 13.1066C14.9006 13.1102 14.7655 13.0864 14.6391 13.0368C13.6244 12.6738 12.5205 12.6433 11.4873 12.9498C10.4541 13.2563 9.54541 13.8838 8.89285 14.7415C8.24029 15.5991 7.8778 16.6423 7.85793 17.7198C7.83806 18.7972 8.16183 19.8531 8.78232 20.7342C9.40281 21.6153 10.2878 22.2759 11.3089 22.6203C12.3301 22.9647 13.4344 22.9749 14.4618 22.6495C15.4891 22.3242 16.3862 21.6801 17.0229 20.8106C17.6597 19.9411 18.003 18.8915 18.0031 17.8138V6.95584C15.481 5.75092 12.6149 5.47353 9.90857 6.17244C7.20224 6.87134 4.82886 8.50181 3.20559 10.7773C1.58231 13.0527 0.813028 15.8275 1.03295 18.614C1.25288 21.4004 2.44793 24.0202 4.40807 26.0128V33.5578C4.40807 33.826 4.51418 34.0833 4.70323 34.2734C4.89229 34.4636 5.14892 34.5713 5.41707 34.5728L15.4061 34.6288H15.4121C15.6809 34.6286 15.9387 34.5217 16.1288 34.3316C16.3189 34.1415 16.4258 33.8837 16.4261 33.6148V32.1148H20.4441C21.1427 32.1143 21.8125 31.8367 22.3067 31.3429C22.8009 30.8491 23.079 30.1794 23.0801 29.4808V26.0488H26.2601C26.5096 26.0484 26.7547 25.9822 26.9705 25.857C27.1864 25.7318 27.3655 25.5519 27.4898 25.3355C27.614 25.1191 27.6791 24.8737 27.6785 24.6242C27.6778 24.3746 27.6115 24.1296 27.4861 23.9138L27.4841 23.9128ZM12.9301 20.8558C12.328 20.8558 11.7395 20.6773 11.2389 20.3428C10.7383 20.0084 10.3482 19.5329 10.1178 18.9767C9.88739 18.4205 9.82711 17.8085 9.94456 17.218C10.062 16.6275 10.3519 16.0851 10.7776 15.6594C11.2033 15.2337 11.7457 14.9438 12.3362 14.8263C12.9267 14.7089 13.5387 14.7692 14.095 14.9996C14.6512 15.2299 15.1266 15.6201 15.4611 16.1207C15.7955 16.6213 15.9741 17.2098 15.9741 17.8118C15.9733 18.6189 15.6523 19.3927 15.0816 19.9634C14.5109 20.5341 13.7371 20.855 12.9301 20.8558Z" fill="#FB7F16"/>
</svg>
